<svg xmlns="http://www.w3.org/2000/svg" width="1000" height="128" viewBox="0 0 1000 128" role="img" aria-label="Troféus do GitHub" font-family="-apple-system,Segoe UI,Helvetica,Arial,sans-serif">
  <g transform="translate(0,0)">
    <rect x="0.5" y="0.5" width="117" height="127" rx="8" fill="#0D0D0D" stroke="#E10600"/>
    <g transform="translate(41.0,12) scale(1.5)" fill="none" stroke="#E10600" stroke-width="1.5" stroke-linecap="round" stroke-linejoin="round">
      <path d="M8 4h8v5a4 4 0 0 1-8 0V4z M8 6H5v1.5A2.5 2.5 0 0 0 7.5 10 M16 6h3v1.5a2.5 2.5 0 0 1-2.5 2.5 M12 13v3 M9 20h6 M10 16h4v4h-4z"/>
    </g>
    <text x="59.0" y="68" text-anchor="middle" font-size="11" font-weight="600" fill="#9E9E9E">Estrelas</text>
    <text x="59.0" y="88" text-anchor="middle" font-size="16" font-weight="700" fill="#FFFFFF">3</text>
    <rect x="39.0" y="98" width="40" height="20" rx="10" fill="#1A1A1A" stroke="#E10600"/>
    <text x="59.0" y="112" text-anchor="middle" font-size="12" font-weight="700" fill="#E10600">C</text>
  </g>
  <g transform="translate(126,0)">
    <rect x="0.5" y="0.5" width="117" height="127" rx="8" fill="#0D0D0D" stroke="#E10600"/>
    <g transform="translate(41.0,12) scale(1.5)" fill="none" stroke="#E10600" stroke-width="1.5" stroke-linecap="round" stroke-linejoin="round">
      <path d="M8 4h8v5a4 4 0 0 1-8 0V4z M8 6H5v1.5A2.5 2.5 0 0 0 7.5 10 M16 6h3v1.5a2.5 2.5 0 0 1-2.5 2.5 M12 13v3 M9 20h6 M10 16h4v4h-4z"/>
    </g>
    <text x="59.0" y="68" text-anchor="middle" font-size="11" font-weight="600" fill="#9E9E9E">Commits (12m)</text>
    <text x="59.0" y="88" text-anchor="middle" font-size="16" font-weight="700" fill="#FFFFFF">107</text>
    <rect x="39.0" y="98" width="40" height="20" rx="10" fill="#1A1A1A" stroke="#E10600"/>
    <text x="59.0" y="112" text-anchor="middle" font-size="12" font-weight="700" fill="#E10600">A</text>
  </g>
  <g transform="translate(252,0)">
    <rect x="0.5" y="0.5" width="117" height="127" rx="8" fill="#0D0D0D" stroke="#E10600"/>
    <g transform="translate(41.0,12) scale(1.5)" fill="none" stroke="#E10600" stroke-width="1.5" stroke-linecap="round" stroke-linejoin="round">
      <path d="M8 4h8v5a4 4 0 0 1-8 0V4z M8 6H5v1.5A2.5 2.5 0 0 0 7.5 10 M16 6h3v1.5a2.5 2.5 0 0 1-2.5 2.5 M12 13v3 M9 20h6 M10 16h4v4h-4z"/>
    </g>
    <text x="59.0" y="68" text-anchor="middle" font-size="11" font-weight="600" fill="#9E9E9E">Seguidores</text>
    <text x="59.0" y="88" text-anchor="middle" font-size="16" font-weight="700" fill="#FFFFFF">5</text>
    <rect x="39.0" y="98" width="40" height="20" rx="10" fill="#1A1A1A" stroke="#E10600"/>
    <text x="59.0" y="112" text-anchor="middle" font-size="12" font-weight="700" fill="#E10600">B</text>
  </g>
  <g transform="translate(378,0)">
    <rect x="0.5" y="0.5" width="117" height="127" rx="8" fill="#0D0D0D" stroke="#E10600"/>
    <g transform="translate(41.0,12) scale(1.5)" fill="none" stroke="#E10600" stroke-width="1.5" stroke-linecap="round" stroke-linejoin="round">
      <path d="M8 4h8v5a4 4 0 0 1-8 0V4z M8 6H5v1.5A2.5 2.5 0 0 0 7.5 10 M16 6h3v1.5a2.5 2.5 0 0 1-2.5 2.5 M12 13v3 M9 20h6 M10 16h4v4h-4z"/>
    </g>
    <text x="59.0" y="68" text-anchor="middle" font-size="11" font-weight="600" fill="#9E9E9E">Repositórios</text>
    <text x="59.0" y="88" text-anchor="middle" font-size="16" font-weight="700" fill="#FFFFFF">7</text>
    <rect x="39.0" y="98" width="40" height="20" rx="10" fill="#1A1A1A" stroke="#E10600"/>
    <text x="59.0" y="112" text-anchor="middle" font-size="12" font-weight="700" fill="#E10600">B</text>
  </g>
  <g transform="translate(504,0)">
    <rect x="0.5" y="0.5" width="117" height="127" rx="8" fill="#0D0D0D" stroke="#E10600"/>
    <g transform="translate(41.0,12) scale(1.5)" fill="none" stroke="#E10600" stroke-width="1.5" stroke-linecap="round" stroke-linejoin="round">
      <path d="M8 4h8v5a4 4 0 0 1-8 0V4z M8 6H5v1.5A2.5 2.5 0 0 0 7.5 10 M16 6h3v1.5a2.5 2.5 0 0 1-2.5 2.5 M12 13v3 M9 20h6 M10 16h4v4h-4z"/>
    </g>
    <text x="59.0" y="68" text-anchor="middle" font-size="11" font-weight="600" fill="#9E9E9E">Pull Requests</text>
    <text x="59.0" y="88" text-anchor="middle" font-size="16" font-weight="700" fill="#FFFFFF">46</text>
    <rect x="39.0" y="98" width="40" height="20" rx="10" fill="#1A1A1A" stroke="#E10600"/>
    <text x="59.0" y="112" text-anchor="middle" font-size="12" font-weight="700" fill="#E10600">AA</text>
  </g>
  <g transform="translate(630,0)">
    <rect x="0.5" y="0.5" width="117" height="127" rx="8" fill="#0D0D0D" stroke="#333333"/>
    <g transform="translate(41.0,12) scale(1.5)" fill="none" stroke="#555555" stroke-width="1.5" stroke-linecap="round" stroke-linejoin="round">
      <path d="M8 4h8v5a4 4 0 0 1-8 0V4z M8 6H5v1.5A2.5 2.5 0 0 0 7.5 10 M16 6h3v1.5a2.5 2.5 0 0 1-2.5 2.5 M12 13v3 M9 20h6 M10 16h4v4h-4z"/>
    </g>
    <text x="59.0" y="68" text-anchor="middle" font-size="11" font-weight="600" fill="#9E9E9E">Issues</text>
    <text x="59.0" y="88" text-anchor="middle" font-size="16" font-weight="700" fill="#FFFFFF">0</text>
    <rect x="39.0" y="98" width="40" height="20" rx="10" fill="#1A1A1A" stroke="#333333"/>
    <text x="59.0" y="112" text-anchor="middle" font-size="12" font-weight="700" fill="#FFFFFF">–</text>
  </g>
  <g transform="translate(756,0)">
    <rect x="0.5" y="0.5" width="117" height="127" rx="8" fill="#0D0D0D" stroke="#E10600"/>
    <g transform="translate(41.0,12) scale(1.5)" fill="none" stroke="#E10600" stroke-width="1.5" stroke-linecap="round" stroke-linejoin="round">
      <path d="M8 4h8v5a4 4 0 0 1-8 0V4z M8 6H5v1.5A2.5 2.5 0 0 0 7.5 10 M16 6h3v1.5a2.5 2.5 0 0 1-2.5 2.5 M12 13v3 M9 20h6 M10 16h4v4h-4z"/>
    </g>
    <text x="59.0" y="68" text-anchor="middle" font-size="11" font-weight="600" fill="#9E9E9E">Linguagens</text>
    <text x="59.0" y="88" text-anchor="middle" font-size="16" font-weight="700" fill="#FFFFFF">10</text>
    <rect x="39.0" y="98" width="40" height="20" rx="10" fill="#E10600" stroke="#E10600"/>
    <text x="59.0" y="112" text-anchor="middle" font-size="12" font-weight="700" fill="#FFFFFF">SS</text>
  </g>
  <g transform="translate(882,0)">
    <rect x="0.5" y="0.5" width="117" height="127" rx="8" fill="#0D0D0D" stroke="#E10600"/>
    <g transform="translate(41.0,12) scale(1.5)" fill="none" stroke="#E10600" stroke-width="1.5" stroke-linecap="round" stroke-linejoin="round">
      <path d="M8 4h8v5a4 4 0 0 1-8 0V4z M8 6H5v1.5A2.5 2.5 0 0 0 7.5 10 M16 6h3v1.5a2.5 2.5 0 0 1-2.5 2.5 M12 13v3 M9 20h6 M10 16h4v4h-4z"/>
    </g>
    <text x="59.0" y="68" text-anchor="middle" font-size="11" font-weight="600" fill="#9E9E9E">Tempo de conta</text>
    <text x="59.0" y="88" text-anchor="middle" font-size="16" font-weight="700" fill="#FFFFFF">2.6 anos</text>
    <rect x="39.0" y="98" width="40" height="20" rx="10" fill="#1A1A1A" stroke="#E10600"/>
    <text x="59.0" y="112" text-anchor="middle" font-size="12" font-weight="700" fill="#E10600">AA</text>
  </g>
</svg>
